<svg xmlns="http://www.w3.org/2000/svg" width="800" height="600" viewBox="0 0 800 600">
  <rect width="800" height="600" fill="#F3EFE8"/>
  <!-- tote body -->
  <path d="M220 220 L220 460 Q220 480 240 480 L560 480 Q580 480 580 460 L580 220 Z" fill="#8B6347" />
  <!-- top opening -->
  <path d="M220 220 Q220 200 240 200 L560 200 Q580 200 580 220" fill="none" stroke="#6b4c35" stroke-width="3"/>
  <!-- handles -->
  <path d="M280 200 Q280 140 330 140 Q380 140 380 200" fill="none" stroke="#6b4c35" stroke-width="14" stroke-linecap="round"/>
  <path d="M420 200 Q420 140 470 140 Q520 140 520 200" fill="none" stroke="#6b4c35" stroke-width="14" stroke-linecap="round"/>
  <!-- leather texture lines -->
  <line x1="220" y1="280" x2="580" y2="280" stroke="#6b4c35" stroke-width="0.5" opacity="0.4"/>
  <line x1="220" y1="340" x2="580" y2="340" stroke="#6b4c35" stroke-width="0.5" opacity="0.4"/>
  <line x1="220" y1="400" x2="580" y2="400" stroke="#6b4c35" stroke-width="0.5" opacity="0.4"/>
  <!-- brand tag -->
  <rect x="370" y="340" width="60" height="30" rx="3" fill="#FAF8F4" opacity="0.8"/>
  <text x="400" y="360" font-family="serif" font-size="9" fill="#102A43" text-anchor="middle">ATELIER</text>
  <text x="400" y="555" font-family="serif" font-size="18" fill="#102A43" opacity="0.5" text-anchor="middle">栃木レザー トートバッグ</text>
</svg>